<mxfile host="app.diagrams.net" modified="2023-09-28T15:11:34.196Z" agent="Mozilla/5.0 (Windows NT 10.0; Win64; x64) AppleWebKit/537.36 (KHTML, like Gecko) Chrome/117.0.0.0 Safari/537.36" version="22.0.0" etag="_GHerOEzR9_y5bggqVKB" type="github">
  <diagram name="PÃ¡gina-1" id="Wyb8GOyhsQ2fGXIs0uZL">
    <mxGraphModel>
      <root>
        <mxCell id="0" />
        <mxCell id="1" parent="0" />
      </root>
    </mxGraphModel>
  </diagram>
</mxfile>
